<?xml version="1.0" encoding="UTF-8" standalone="no"?>
<!-- Created with Inkscape (http://www.inkscape.org/) -->

<svg
   xmlns:dc="http://purl.org/dc/elements/1.1/"
   xmlns:cc="http://creativecommons.org/ns#"
   xmlns:rdf="http://www.w3.org/1999/02/22-rdf-syntax-ns#"
   xmlns:svg="http://www.w3.org/2000/svg"
   xmlns="http://www.w3.org/2000/svg"
   xmlns:sodipodi="http://sodipodi.sourceforge.net/DTD/sodipodi-0.dtd"
   xmlns:inkscape="http://www.inkscape.org/namespaces/inkscape"
   version="1.1"
   id="svg890"
   width="346.46616"
   height="430.9173"
   viewBox="0 0 346.46616 430.9173"
   sodipodi:docname="logo_2.svg"
   inkscape:version="0.92.5 (2060ec1f9f, 2020-04-08)">
  <metadata
     id="metadata896">
    <rdf:RDF>
      <cc:Work
         rdf:about="">
        <dc:format>image/svg+xml</dc:format>
        <dc:type
           rdf:resource="http://purl.org/dc/dcmitype/StillImage" />
        <dc:title></dc:title>
      </cc:Work>
    </rdf:RDF>
  </metadata>
  <defs
     id="defs894" />
  <sodipodi:namedview
     pagecolor="#ffffff"
     bordercolor="#666666"
     borderopacity="1"
     objecttolerance="10"
     gridtolerance="10"
     guidetolerance="10"
     inkscape:pageopacity="0"
     inkscape:pageshadow="2"
     inkscape:window-width="1920"
     inkscape:window-height="1006"
     id="namedview892"
     showgrid="false"
     inkscape:zoom="1"
     inkscape:cx="378.88811"
     inkscape:cy="274.94171"
     inkscape:window-x="0"
     inkscape:window-y="40"
     inkscape:window-maximized="1"
     inkscape:current-layer="svg890" />
  <path
     style="fill:#333333;stroke-width:0.7218045;stroke:none"
     d="m 126.67669,429.49316 c -16.89352,-2.64982 -19.60161,-6.45609 -16.9924,-23.88311 3.12297,-20.85853 6.26334,-23.05718 27.75201,-19.42982 16.66675,2.8134 19.05291,6.36902 16.33126,24.33524 -3.04755,20.11745 -6.11686,22.26756 -27.09087,18.97769 z m 16.8195,-3.19369 c 3.68019,-1.9031 4.55564,-3.62889 5.96326,-11.75542 2.02378,-11.68374 2.05776,-11.49323 -1.66998,-9.36379 -7.85206,4.48545 -25.02501,1.7918 -30.56707,-4.79456 -2.43233,-2.89066 -2.7865,-2.2629 -4.22782,7.49364 -1.95158,13.21056 -0.0789,15.63706 13.88414,17.99013 9.59125,1.61632 14.09786,1.73294 16.61747,0.43 z m 1.57769,-23.76653 c 0.98763,-0.47284 1.90768,-1.44127 2.04457,-2.15205 1.10716,-5.74909 -19.57305,-10.88156 -26.39665,-6.55119 -8.00313,5.07891 14.85731,13.24906 24.35208,8.70324 z M 134.8455,383.19548 c -9.42326,-1.21493 -17.22461,-5.91358 -18.33011,-11.03999 -0.84971,-3.94027 -3.19572,-7.7095 -11.47492,-18.43622 C 39.905257,269.32848 4.0908205,207.98021 0.68187533,174.95841 -1.2389763,156.35149 3.2895315,114.33732 9.1535284,96.360904 18.614754,67.356966 39.301059,44.920832 71.59674,28.635694 77.535734,25.640948 83.874224,21.828402 86.377327,19.745296 97.823746,10.219489 109.55771,5.8149649 123.56329,5.7869693 c 4.11451,-0.00822 8.333,-0.5569867 12.27068,-1.5962307 5.32936,-1.4065396 7.97883,-1.5946651 23.68482,-1.68174 14.17972,-0.078613 18.47094,-0.3352351 21.65414,-1.2949535 6.96235,-2.09911134 15.47383,-0.87754723 19.54274,2.8047662 1.2497,1.1309606 1.63783,1.1269345 6.03222,-0.062573 7.94634,-2.1509745 15.46736,-0.026074 21.94492,6.2000577 3.1289,3.007456 3.1289,3.007456 7.40427,2.10016 7.54654,-1.601485 13.12806,-0.207834 18.56258,4.634893 1.58212,1.40984 4.12902,2.733634 6.27267,3.260328 5.44423,1.337647 14.69754,5.913297 21.81037,10.784971 3.49684,2.395029 8.30273,5.236852 10.67977,6.315162 10.55317,4.787298 16.66778,10.606359 21.4926,20.453736 1.66379,3.395785 4.69454,8.77265 6.73499,11.94859 4.33149,6.741936 8.43772,14.744828 10.84035,21.127449 0.93704,2.489266 3.01458,7.13314 4.61676,10.319715 9.43791,18.77107 12.1798,48.36457 6.81689,73.57539 -4.06492,19.10902 -4.60753,21.12219 -6.05698,22.47257 -0.8284,0.77177 -1.51321,2.2838 -1.5218,3.36007 -0.22552,28.24902 -31.02595,70.01718 -79.74378,108.13971 -25.25408,19.76176 -51.08242,37.42017 -86.43718,59.09573 -8.4733,5.19486 -9.26375,5.86441 -9.95531,8.43269 -1.7047,6.33076 -10.91901,8.88034 -25.36351,7.01802 z m 14.46565,-3.4751 c 3.17381,-0.61314 6.62683,-2.66214 7.15461,-4.2455 0.19927,-0.5978 -0.9919,-0.85851 -3.92441,-0.85894 -11.32321,-0.001 -23.61075,-2.11042 -31.45865,-5.39897 -1.94068,-0.81322 -1.61673,1.98139 0.5247,4.52634 4.03539,4.79579 18.10537,7.83139 27.70375,5.97707 z m 6.08374,-12.93224 c 15.27873,-12.19539 42.37648,-58.3366 63.87119,-108.75789 24.76374,-58.08962 23.65738,-103.53471 -4.6827,-192.346038 -5.83905,-18.298253 -4.78746,-17.419095 -12.03225,-10.059332 -38.8862,39.503326 -53.15964,110.89967 -61.96852,309.96911 -0.30303,6.84826 6.99186,7.43636 14.81228,1.19415 z m 10.91462,-0.95381 c 59.57696,-36.40624 82.2492,-54.29093 101.48593,-80.05581 30.87652,-41.35471 36.37372,-95.3639 14.44191,-141.88953 -10.96317,-23.257 -41.01542,-65.848041 -59.76506,-84.701019 -9.1693,-9.21984 -9.15245,-9.251712 -3.8385,7.25854 23.24367,72.217409 27.50853,119.125229 14.8279,163.087329 -11.66859,40.45347 -48.29414,110.78507 -70.35107,135.09429 -6.18141,6.81261 -6.05421,6.86057 3.19889,1.2062 z m -29.5829,-0.0599 c 0.22519,-2.08421 1.2308,-19.70526 2.23469,-39.1579 5.07794,-98.39692 9.20344,-139.17948 18.082,-178.74889 9.28446,-41.37842 24.4918,-75.839108 40.95758,-92.812199 4.53234,-4.671971 4.05333,-5.254605 -2.58878,-3.148847 -57.87912,18.349532 -87.4458,44.747033 -106.787832,95.341536 -20.227011,52.90941 -15.005659,96.69549 22.908802,192.1123 11.0863,27.90016 10.11038,26.23756 16.7237,28.49104 7.50104,2.55599 7.98201,2.43804 8.46984,-2.07702 z M 106.83018,337.36278 C 69.377689,242.91453 64.592392,197.71623 86.267988,143.14787 105.32674,95.167436 133.43555,69.451262 187.11434,50.885634 199.97644,46.43708 199.48581,45.894306 183.0538,46.393571 138.01036,47.762158 101.27936,64.10923 69.59459,96.88842 c -52.97281,54.80255 -55.501891,115.71755 -7.789091,187.6067 3.572066,5.38205 5.888514,9.56676 5.645801,10.19927 -0.789102,2.05636 46.48075,66.56153 47.80579,65.2365 0.20567,-0.20568 -3.58644,-10.36133 -8.42691,-22.56811 z M 272.8421,290.44401 c 50.73947,-43.61724 69.29945,-84.52303 58.02999,-127.89683 -9.05934,-34.86745 -30.23578,-61.2715 -68.49615,-85.405058 -11.05684,-6.974334 -34.98523,-20.382466 -35.48428,-19.883408 -0.20934,0.209337 2.51225,3.733569 6.04798,7.831626 26.17855,30.342042 51.91765,71.00328 59.31757,93.70665 14.52001,44.54824 5.72292,94.14054 -23.36721,131.72933 -7.53213,9.73262 -7.46384,9.7312 3.9521,-0.0823 z M 34.766353,241.75348 C 13.64127,187.08289 24.349022,138.27409 67.117361,94.288935 97.814038,62.718893 134.18951,45.543651 175.92562,42.913432 188.18756,42.140683 185.30691,41.021557 164.93233,38.642571 104.67402,31.606663 46.272032,57.673627 20.657132,103.03792 -1.7509838,142.72296 0.5852117,184.95505 27.954101,234.94737 37.96243,253.2287 39.978944,255.2434 34.766353,241.75348 Z M 340.28307,174.49624 c 4.20524,-19.41586 3.35002,-45.60764 -1.99936,-61.23168 -10.81884,-31.598795 -39.02617,-49.195103 -97.81461,-61.018743 -21.93462,-4.41153 -21.97645,-4.345781 -3.69906,5.81443 67.16353,37.335503 93.96548,68.818913 100.65859,118.240503 0.65383,4.8278 1.53919,4.2681 2.85444,-1.80451 z M 13.47678,109.15817 C 28.018756,79.157884 45.252563,63.441105 81.998695,46.667981 112.69454,32.656569 146.63771,30.1339 189.29323,38.693813 c 6.325,1.269272 -1.84459,-3.202642 -14.15845,-7.750124 C 100.42901,3.3549978 23.621495,39.847048 9.3880658,109.69168 6.9918009,121.45035 7.5539685,121.377 13.47678,109.15817 Z M 324.81202,82.765788 c 0,-2.654148 -11.6669,-19.561318 -16.03434,-23.236277 -9.24923,-7.782713 -40.04697,-14.842537 -64.80623,-14.855653 -17.6583,-0.0094 -18.58208,0.850897 -3.97145,3.698363 37.75612,7.358292 64.95616,18.158034 79.75939,31.668379 4.19009,3.824121 5.05263,4.289353 5.05263,2.725188 z m -16.6015,-29.50595 c 0,-0.481526 -1.75722,-2.537205 -3.90495,-4.568176 -14.77339,-13.970323 -46.67301,-18.158099 -74.56223,-9.788518 -7.39973,2.220665 -7.59994,3.284591 -0.49081,2.608181 24.36633,-2.318376 55.04231,2.226879 74.62716,11.057497 3.89557,1.756472 4.33083,1.825921 4.33083,0.691016 z M 213.44556,41.974884 c 4.29256,-4.432552 25.93554,-16.906928 34.69856,-19.999223 6.70224,-2.365092 1.19366,-7.266061 -7.43639,-6.616126 -9.73722,0.733318 -23.82794,13.139311 -25.96263,22.858469 -1.16425,5.300831 -4.69149,2.448463 -4.71252,-3.810872 -0.0651,-19.369995 -12.85247,-34.00425875 -26.51379,-30.3431661 -2.33238,0.6250551 -2.02808,1.3361839 1.44361,3.3736277 9.6368,5.6555754 19.42482,19.0874534 22.41028,30.7531344 1.30436,5.09678 3.48551,6.455908 6.07288,3.784156 z m -14.98818,-6.30976 C 174.52159,10.737662 114.35114,1.4247776 93.11278,19.360408 c -2.231559,1.884534 -1.520192,1.936805 6.135339,0.450831 28.804811,-5.591148 63.139921,-0.08392 94.330401,15.130268 3.69723,1.803445 6.86715,3.286898 7.04428,3.296562 0.17712,0.0097 -0.79732,-1.148161 -2.16542,-2.572945 z m 45.23572,-3.579611 c 6.12215,-0.963833 10.63619,-1.154337 20.45503,-0.863253 14.23275,0.421936 14.32353,0.337859 4.58316,-4.244677 -10.77275,-5.068233 -15.04006,-4.61998 -29.99445,3.150723 -4.12866,2.145358 -6.96702,4.754823 -3.88584,3.572464 0.54248,-0.208171 4.52142,-0.935036 8.8421,-1.615257 z M 200.34294,30.496241 C 195.56292,17.735452 182.48005,7.6512456 169.16125,6.4615708 155.27471,5.2211833 140.42088,5.9979702 147.64666,7.5866838 c 17.7121,3.8943082 35.85381,11.6977052 46.87965,20.1646102 5.45462,4.188681 6.5513,4.706217 5.81663,2.744947 z m 22.54474,-10.165295 c 5.3576,-5.293115 5.3576,-5.293115 3.29511,-7.465802 -8.27903,-8.7213739 -22.76188,-8.4254563 -17.9293,0.366336 2.16377,3.936506 3.09653,6.760831 5.04625,15.279799 0.4956,2.165413 0.4956,2.165413 2.36296,-0.360903 1.02705,-1.389473 4.27829,-4.908217 7.22498,-7.81943 z"
     id="path912"
     inkscape:connector-curvature="0" />
</svg>
