<?xml version="1.0" encoding="UTF-8" standalone="no"?>
<!-- Created with Inkscape (http://www.inkscape.org/) -->

<svg
   xmlns:dc="http://purl.org/dc/elements/1.1/"
   xmlns:cc="http://creativecommons.org/ns#"
   xmlns:rdf="http://www.w3.org/1999/02/22-rdf-syntax-ns#"
   xmlns:svg="http://www.w3.org/2000/svg"
   xmlns="http://www.w3.org/2000/svg"
   xmlns:sodipodi="http://sodipodi.sourceforge.net/DTD/sodipodi-0.dtd"
   xmlns:inkscape="http://www.inkscape.org/namespaces/inkscape"
   version="1.1"
   id="svg890"
   width="346.46616"
   height="430.9173"
   viewBox="0 0 346.46616 430.9173"
   sodipodi:docname="logo.svg"
   inkscape:version="0.92.5 (2060ec1f9f, 2020-04-08)">
  <metadata
     id="metadata896">
    <rdf:RDF>
      <cc:Work
         rdf:about="">
        <dc:format>image/svg+xml</dc:format>
        <dc:type
           rdf:resource="http://purl.org/dc/dcmitype/StillImage" />
        <dc:title></dc:title>
      </cc:Work>
    </rdf:RDF>
  </metadata>
  <defs
     id="defs894" />
  <sodipodi:namedview
     pagecolor="#ffffff"
     bordercolor="#666666"
     borderopacity="1"
     objecttolerance="10"
     gridtolerance="10"
     guidetolerance="10"
     inkscape:pageopacity="0"
     inkscape:pageshadow="2"
     inkscape:window-width="1920"
     inkscape:window-height="1006"
     id="namedview892"
     showgrid="false"
     inkscape:zoom="1"
     inkscape:cx="378.88811"
     inkscape:cy="274.94171"
     inkscape:window-x="0"
     inkscape:window-y="40"
     inkscape:window-maximized="1"
     inkscape:current-layer="svg890" />
  <path
     style="fill:#333333;stroke-width:0.7218045;stroke:none"
     d="M -34.992188 -37.984375 L -34.992188 482.92188 L 383.83789 482.92188 L 383.83789 -37.984375 L -34.992188 -37.984375 z M 187.9707 0.19335938 C 193.02069 0.11933876 197.91747 1.4879408 200.71484 4.0195312 C 201.96454 5.1504918 202.35366 5.1465387 206.74805 3.9570312 C 214.69439 1.8060568 222.2158 3.9301183 228.69336 10.15625 C 231.82226 13.163706 231.82229 13.163155 236.09766 12.255859 C 243.6442 10.654374 249.22564 12.047898 254.66016 16.890625 C 256.24228 18.300465 258.78799 19.62565 260.93164 20.152344 C 266.37587 21.489991 275.62936 26.065826 282.74219 30.9375 C 286.23903 33.332529 291.04483 36.173643 293.42188 37.251953 C 303.97505 42.039251 310.0912 47.857701 314.91602 57.705078 C 316.57981 61.100863 319.60994 66.478357 321.65039 69.654297 C 325.98188 76.396233 330.0876 84.398629 332.49023 90.78125 C 333.42727 93.270516 335.50524 97.914987 337.10742 101.10156 C 346.54533 119.87263 349.28674 149.46496 343.92383 174.67578 C 339.85891 193.7848 339.31664 195.79806 337.86719 197.14844 C 337.03879 197.92021 336.35429 199.4335 336.3457 200.50977 C 336.12018 228.75879 305.31939 270.52591 256.60156 308.64844 C 231.34748 328.4102 205.51882 346.06858 170.16406 367.74414 C 161.69076 372.939 160.90054 373.60945 160.20898 376.17773 C 158.50428 382.50849 149.2902 385.05763 134.8457 383.19531 C 125.42244 381.98038 117.62112 377.28266 116.51562 372.15625 C 115.66591 368.21598 113.32022 364.44547 105.04102 353.71875 C 39.905803 269.32796 4.0905858 207.98078 0.68164062 174.95898 C -1.239211 156.35206 3.2903 114.33774 9.1542969 96.361328 C 18.615522 67.35739 39.301975 44.919904 71.597656 28.634766 C 77.53665 25.64002 83.87385 21.8292 86.376953 19.746094 C 97.823372 10.220287 109.55692 5.815105 123.5625 5.7871094 C 127.67701 5.7788894 131.8963 5.2306503 135.83398 4.1914062 C 141.16334 2.7848667 143.81354 2.5968405 159.51953 2.5097656 C 173.69925 2.4311526 177.99063 2.1745621 181.17383 1.2148438 C 183.34956 0.55887146 185.67526 0.22700511 187.9707 0.19335938 z M 187.32812 3.5058594 C 186.0725 3.5386615 184.80028 3.7212257 183.51953 4.0644531 C 181.18715 4.6895082 181.4912 5.4000562 184.96289 7.4375 C 194.59969 13.093075 204.38759 26.525725 207.37305 38.191406 C 208.67741 43.288186 210.85794 44.646361 213.44531 41.974609 C 217.73787 37.542057 239.38151 25.068858 248.14453 21.976562 C 254.84677 19.61147 249.33708 14.70944 240.70703 15.359375 C 230.96981 16.092693 216.87883 28.499592 214.74414 38.21875 C 213.57989 43.519581 210.05423 40.665585 210.0332 34.40625 C 209.97421 16.852192 199.46582 3.1887718 187.32812 3.5058594 z M 154.3457 5.8535156 C 147.2388 5.917894 143.13037 6.5929915 147.64648 7.5859375 C 165.35858 11.480246 183.49955 19.285048 194.52539 27.751953 C 199.98001 31.940634 201.07842 32.457364 200.34375 30.496094 C 195.56373 17.735305 182.48091 7.6506123 169.16211 6.4609375 C 163.95466 5.9957922 158.60984 5.8148886 154.3457 5.8535156 z M 212.30078 6.4804688 C 208.24926 6.5632504 205.83762 8.8365257 208.25391 13.232422 C 210.41768 17.168928 211.34911 19.992751 213.29883 28.511719 C 213.79443 30.677132 213.79475 30.676707 215.66211 28.150391 C 216.68916 26.760918 219.94003 23.241291 222.88672 20.330078 C 228.24432 15.036963 228.24608 15.037921 226.18359 12.865234 C 222.04408 8.5045474 216.3523 6.3976871 212.30078 6.4804688 z M 125.76367 10.050781 C 112.31543 10.249121 100.41397 13.195955 93.113281 19.361328 C 90.881722 21.245862 91.592516 21.296521 99.248047 19.810547 C 128.05286 14.219399 162.38765 19.727218 193.57812 34.941406 C 197.27535 36.744851 200.44592 38.228617 200.62305 38.238281 C 200.80017 38.247981 199.82513 37.0908 198.45703 35.666016 C 182.74917 19.307369 151.43759 9.6721317 125.76367 10.050781 z M 123.09375 21.708984 C 67.86293 22.291784 20.286141 56.21661 9.3886719 109.69141 C 6.992407 121.45008 7.553751 121.37703 13.476562 109.1582 C 28.018538 79.157917 45.251915 63.441093 81.998047 46.667969 C 112.69389 32.656557 146.63745 30.133446 189.29297 38.693359 C 195.61797 39.962631 187.44863 35.490841 175.13477 30.943359 C 157.6256 24.47726 140.00114 21.530576 123.09375 21.708984 z M 256.88867 23.644531 C 252.17985 23.703237 247.14817 25.757886 238.73633 30.128906 C 234.60767 32.274264 231.77038 34.883531 234.85156 33.701172 C 235.39404 33.493001 239.37268 32.766159 243.69336 32.085938 C 249.81551 31.122104 254.3296 30.931572 264.14844 31.222656 C 278.38119 31.644592 278.47084 31.561052 268.73047 26.978516 C 264.01739 24.761164 260.55109 23.598872 256.88867 23.644531 z M 259.06641 34.611328 C 249.39026 34.633425 239.33106 36.0253 229.74414 38.902344 C 222.34441 41.123009 222.14282 42.188129 229.25195 41.511719 C 253.61828 39.193343 284.29406 43.737741 303.87891 52.568359 C 307.77448 54.324831 308.21094 54.394671 308.21094 53.259766 C 308.21094 52.77824 306.45242 50.722377 304.30469 48.691406 C 294.60965 39.523382 277.53904 34.569144 259.06641 34.611328 z M 148.05859 37.525391 C 94.011296 36.664039 43.869753 61.925719 20.65625 103.03711 C -1.7518658 142.72215 0.5842357 184.95495 27.953125 234.94727 C 37.961454 253.2286 39.978216 255.24383 34.765625 241.75391 C 13.640542 187.08332 24.348849 138.27422 67.117188 94.289062 C 97.813864 62.719021 134.18967 45.544282 175.92578 42.914062 C 188.18772 42.141314 185.30622 41.021564 164.93164 38.642578 C 159.28242 37.982962 153.64969 37.614496 148.05859 37.525391 z M 243.9707 44.673828 C 226.3124 44.664428 225.38937 45.525581 240 48.373047 C 277.75612 55.731339 304.95654 66.530671 319.75977 80.041016 C 323.94986 83.865137 324.8125 84.32979 324.8125 82.765625 C 324.8125 80.111477 313.14478 63.204256 308.77734 59.529297 C 299.52811 51.746584 268.72996 44.686944 243.9707 44.673828 z M 192.42969 46.259766 C 190.27391 46.209581 187.16269 46.269715 183.05469 46.394531 C 138.01125 47.763118 101.27852 64.109482 69.59375 96.888672 C 16.62094 151.69122 14.091888 212.60694 61.804688 284.49609 C 65.376754 289.87814 67.693885 294.0628 67.451172 294.69531 C 66.66207 296.75167 113.93277 361.25667 115.25781 359.93164 C 115.46348 359.72596 111.67055 349.57006 106.83008 337.36328 C 69.377587 242.91503 64.591982 197.7168 86.267578 143.14844 C 105.32633 95.168003 133.43644 69.450394 187.11523 50.884766 C 196.76181 47.54835 198.89702 46.410319 192.42969 46.259766 z M 224.83984 49.46875 C 221.07887 49.303966 225.34616 51.710415 236.76953 58.060547 C 303.93306 95.39605 330.73462 126.87919 337.42773 176.30078 C 338.08156 181.12858 338.96795 180.5687 340.2832 174.49609 C 344.48844 155.08023 343.63258 128.88771 338.2832 113.26367 C 327.46436 81.664877 299.25719 64.069734 240.46875 52.246094 C 232.24327 50.59177 227.09643 49.56762 224.83984 49.46875 z M 208.29102 50.714844 C 207.06803 50.714357 205.49398 52.635096 202.55078 55.625 C 163.66458 95.128326 149.39091 166.52431 140.58203 365.59375 C 140.279 372.44201 147.57411 373.03127 155.39453 366.78906 C 170.67326 354.59367 197.77091 308.45059 219.26562 258.0293 C 244.02936 199.93968 242.92406 154.49492 214.58398 65.683594 C 211.11705 54.819006 210.07846 50.715555 208.29102 50.714844 z M 200.3457 50.746094 C 199.52755 50.705765 197.9029 51.116591 195.41211 51.90625 C 137.53299 70.255782 107.96703 96.653544 88.625 147.24805 C 68.397989 200.15746 73.618742 243.94452 111.5332 339.36133 C 122.6195 367.26149 121.64254 365.59808 128.25586 367.85156 C 135.7569 370.40755 136.23873 370.29045 136.72656 365.77539 C 136.95175 363.69118 137.95705 346.06983 138.96094 326.61719 C 144.03888 228.22027 148.16441 187.4366 157.04297 147.86719 C 166.32743 106.48877 181.53422 72.027778 198 55.054688 C 200.83271 52.134706 201.7093 50.813309 200.3457 50.746094 z M 215.38672 52.978516 C 214.33158 53.106351 215.64567 57.160249 218.63477 66.447266 C 241.87844 138.66467 246.14157 185.5711 233.46094 229.5332 C 221.79235 269.98667 185.16826 340.31969 163.11133 364.62891 C 156.92992 371.44152 157.05549 371.48835 166.30859 365.83398 C 225.88555 329.42774 248.55819 311.54418 267.79492 285.7793 C 298.67144 244.42459 304.17009 190.4143 282.23828 143.88867 C 271.27511 120.63167 241.2223 78.040478 222.47266 59.1875 C 218.46109 55.15382 216.20738 52.879088 215.38672 52.978516 z M 227.00586 57.251953 C 226.94561 57.241007 226.90817 57.242217 226.89258 57.257812 C 226.68324 57.467149 229.40372 60.991787 232.93945 65.089844 C 259.118 95.431886 284.85789 136.0935 292.25781 158.79688 C 306.77782 203.34511 297.98075 252.9366 268.89062 290.52539 C 261.3585 300.25801 261.42586 300.25686 272.8418 290.44336 C 323.58127 246.82612 342.14251 205.92067 330.87305 162.54688 C 321.81371 127.67943 300.63537 101.27614 262.375 77.142578 C 251.66369 70.386192 228.87355 57.591284 227.00586 57.251953 z M 120.46094 369.07422 C 119.25212 369.09912 119.73367 371.51731 121.60742 373.74414 C 125.64281 378.53993 139.71217 381.57502 149.31055 379.7207 C 152.48436 379.10756 155.93706 377.05797 156.46484 375.47461 C 156.66411 374.87681 155.47353 374.61566 152.54102 374.61523 C 141.21781 374.61423 128.92993 372.50535 121.08203 369.2168 C 120.83945 369.11514 120.63363 369.07066 120.46094 369.07422 z M 124.47461 384.75195 C 127.83966 384.73001 132.06338 385.27285 137.43555 386.17969 C 154.1023 388.99309 156.48923 392.54941 153.76758 410.51562 C 150.72003 430.63308 147.64979 432.78206 126.67578 429.49219 C 109.78226 426.84237 107.07438 423.03639 109.68359 405.60938 C 112.02582 389.96548 114.37946 384.81777 124.47461 384.75195 z M 127.88086 392.21875 C 124.99982 392.25671 122.42856 392.74749 120.72266 393.83008 C 112.71953 398.90899 135.57945 407.07902 145.07422 402.5332 C 146.06185 402.06036 146.98225 401.09164 147.11914 400.38086 C 147.94951 396.06904 136.52398 392.10487 127.88086 392.21875 z M 115.45508 398.87695 C 114.4633 398.77812 113.98505 401.17128 112.99414 407.87891 C 111.04256 421.08947 112.91587 423.51607 126.87891 425.86914 C 136.47016 427.48546 140.97648 427.60177 143.49609 426.29883 C 147.17628 424.39573 148.05136 422.67145 149.45898 414.54492 C 151.48276 402.86118 151.5168 403.05025 147.78906 405.17969 C 139.937 409.66514 122.76472 406.97113 117.22266 400.38477 C 116.46255 399.48143 115.90589 398.92188 115.45508 398.87695 z "
     id="path912" />
</svg>
