<?xml version="1.0" encoding="UTF-8" standalone="no"?>
<!-- Created with Inkscape (http://www.inkscape.org/) -->

<svg
   xmlns:dc="http://purl.org/dc/elements/1.1/"
   xmlns:cc="http://creativecommons.org/ns#"
   xmlns:rdf="http://www.w3.org/1999/02/22-rdf-syntax-ns#"
   xmlns:svg="http://www.w3.org/2000/svg"
   xmlns="http://www.w3.org/2000/svg"
   xmlns:sodipodi="http://sodipodi.sourceforge.net/DTD/sodipodi-0.dtd"
   xmlns:inkscape="http://www.inkscape.org/namespaces/inkscape"
   version="1.1"
   id="svg890"
   width="346.46616"
   height="430.9173"
   viewBox="0 0 346.46616 430.9173"
   sodipodi:docname="logo_1.svg"
   inkscape:version="0.92.5 (2060ec1f9f, 2020-04-08)">
  <metadata
     id="metadata896">
    <rdf:RDF>
      <cc:Work
         rdf:about="">
        <dc:format>image/svg+xml</dc:format>
        <dc:type
           rdf:resource="http://purl.org/dc/dcmitype/StillImage" />
        <dc:title></dc:title>
      </cc:Work>
    </rdf:RDF>
  </metadata>
  <defs
     id="defs894" />
  <sodipodi:namedview
     pagecolor="#ffffff"
     bordercolor="#666666"
     borderopacity="1"
     objecttolerance="10"
     gridtolerance="10"
     guidetolerance="10"
     inkscape:pageopacity="0"
     inkscape:pageshadow="2"
     inkscape:window-width="1920"
     inkscape:window-height="1006"
     id="namedview892"
     showgrid="false"
     inkscape:zoom="1.4142136"
     inkscape:cx="172.58903"
     inkscape:cy="225.16971"
     inkscape:window-x="0"
     inkscape:window-y="40"
     inkscape:window-maximized="1"
     inkscape:current-layer="svg890" />
  <path
     style="fill:#333333;stroke:none;stroke-width:0.7052452"
     d="m -25.147354,-29.610696 0.356466,509.536946 408.754498,-0.4283 -0.35646,-509.536937 z M 192.47797,7.5057713 c 4.92846,-0.077569 9.70835,1.2561532 12.44016,3.7296287 1.22042,1.104998 1.60017,1.100734 5.88805,-0.0673 7.75368,-2.1121548 15.09563,-0.04214 21.42161,6.041472 3.0557,2.938616 3.05572,2.938076 7.22761,2.046211 7.36391,-1.574247 12.81203,-0.216846 18.11914,4.514626 1.54502,1.377451 4.03039,2.671109 6.12283,3.184116 5.31419,1.302884 14.34819,5.769383 21.29325,10.527455 3.41437,2.33918 8.10649,5.11337 10.42709,6.165713 10.30258,4.672019 16.27558,10.357221 20.99108,19.984735 1.62607,3.319966 4.58699,8.576992 6.58053,11.681528 4.2319,6.590357 8.24433,14.413894 10.59354,20.654752 0.91619,2.433976 2.94736,6.974956 4.51317,10.090336 9.22371,18.35173 11.91943,47.29536 6.70279,71.96142 -3.95407,18.6961 -4.48192,20.66597 -5.89557,21.98837 -0.80795,0.75577 -1.47493,2.23672 -1.48259,3.28951 -0.20077,27.6327 -30.23202,68.5197 -77.75178,105.85999 -24.63304,19.35625 -49.82825,36.65564 -84.31766,57.89426 -8.26593,5.09014 -9.03667,5.74676 -9.70983,8.25969 -1.65937,6.19433 -10.65005,8.69726 -24.74833,6.89036 -9.19741,-1.17879 -16.81428,-5.76598 -17.89669,-10.77938 -0.83197,-3.8534 -3.12381,-7.53923 -11.21117,-18.02335 C 48.159156,270.91764 13.163545,210.94605 9.8140092,178.64848 7.9266337,160.44963 12.31843,119.34768 18.029058,101.75763 27.24283,73.377056 47.416287,51.408139 78.923904,35.445416 84.717977,32.50996 90.900119,28.775834 93.34158,26.735635 c 11.16454,-9.329601 22.6128,-13.650634 36.28144,-13.692341 4.01552,-0.01225 8.13294,-0.552835 11.97518,-1.573424 5.20019,-1.381291 7.78651,-1.5679215 23.11461,-1.6691574 13.83855,-0.091397 18.02652,-0.3467756 21.13248,-1.2888024 2.12294,-0.6438798 4.39248,-0.9708807 6.63268,-1.0061389 z m -0.62486,3.2408577 c -1.2254,0.03337 -2.46688,0.213251 -3.7166,0.550297 -2.27583,0.613797 -1.97861,1.308526 1.41096,3.297951 9.40883,5.52228 18.97046,18.65174 21.89209,30.059753 1.27646,4.984203 3.40547,6.310506 5.92877,3.694421 4.18627,-4.340196 25.30071,-16.563286 33.8508,-19.597051 6.53938,-2.320326 1.15889,-7.109729 -7.26311,-6.465155 -9.50247,0.727271 -23.24599,12.877785 -25.32267,22.386995 -1.13262,5.186325 -4.57542,2.398226 -4.60022,-3.724471 -0.0696,-17.170862 -10.33453,-30.525318 -22.18002,-30.20274 z m -32.18738,2.330144 c -6.93589,0.07024 -10.94502,0.734804 -6.53687,1.70146 17.28868,3.7912 34.99857,11.407103 45.76496,19.677934 5.32627,4.09168 6.39861,4.59601 5.68027,2.678296 -4.67376,-12.477383 -17.44875,-22.328588 -30.44796,-23.478676 -5.0825,-0.449666 -10.29886,-0.621158 -14.4604,-0.579014 z m 56.56131,0.554004 c -3.95399,0.08512 -6.30606,2.311244 -3.94489,6.608723 2.11441,3.848375 3.02536,6.609613 4.93403,14.940654 0.48514,2.117642 0.48545,2.117226 2.30616,-0.355861 1.00139,-1.360195 4.17166,-4.806326 7.04546,-7.657013 5.2251,-5.183066 5.22681,-5.182131 3.21245,-7.305288 -4.04291,-4.261276 -9.5992,-6.316332 -13.55321,-6.231215 z m -84.45287,3.58088 c -13.12461,0.207761 -24.73774,3.102448 -31.858576,9.140722 -2.176587,1.845683 -1.482858,1.89451 5.987496,0.433137 28.10804,-5.49857 61.62063,-0.146075 92.07117,14.704151 3.60953,1.760304 6.70484,3.208443 6.87771,3.217715 0.17286,0.0093 -0.77951,-1.121621 -2.11567,-2.513908 C 187.39512,26.207933 156.83019,16.815013 131.77417,17.211653 Z m -2.59773,11.406479 C 75.274682,29.244695 28.865636,62.477727 18.266917,114.79653 15.936344,126.30101 16.484134,126.22898 22.256102,114.27079 36.42772,84.91041 53.235766,69.518999 89.086439,53.074389 119.03426,39.337402 152.15953,36.834651 193.79476,45.164115 c 6.17373,1.235102 -1.80215,-3.130733 -13.82291,-7.566371 -17.09237,-6.307064 -34.29487,-9.17141 -50.79541,-8.979608 z m 130.57762,1.756486 c -4.5955,0.06224 -9.50474,2.077188 -17.71123,6.361409 -4.02786,2.102755 -6.79512,4.657972 -3.78887,3.498269 0.52929,-0.204181 4.41172,-0.919228 8.62799,-1.58902 5.97422,-0.949057 10.37958,-1.140048 19.96242,-0.865358 13.89064,0.398172 13.97809,0.316365 4.4689,-4.156192 -4.60122,-2.164137 -7.98493,-3.297516 -11.55921,-3.249108 z m 2.13286,10.725208 c -9.44337,0.03151 -19.25963,1.403292 -28.61394,4.227345 -7.22021,2.179762 -7.41621,3.221842 -0.47858,2.552925 23.77858,-2.292692 53.71952,2.121152 72.83927,10.739006 3.80306,1.71415 4.22906,1.782019 4.22829,0.671886 -3.9e-4,-0.471021 -1.71796,-2.48021 -3.81541,-4.464657 C 296.57846,45.868327 279.91513,41.039677 261.88692,41.09983 Z M 153.55155,44.063806 C 100.80385,43.27652 51.885818,68.038113 29.258883,108.27595 7.4169844,147.11774 9.7257881,188.42637 36.470488,237.29957 c 9.780075,17.87209 11.7497,19.84127 6.653274,6.65111 C 22.469462,190.49493 32.886764,142.74019 74.596149,99.671318 104.53277,68.758938 140.02175,51.921858 180.75203,49.306366 c 11.96643,-0.768421 9.15349,-1.860784 -10.73258,-4.167012 -5.51376,-0.639441 -11.01124,-0.994106 -16.4679,-1.075548 z m 93.60969,6.894336 c -17.23352,0.0089 -18.13374,0.852164 -3.87265,3.62254 36.85288,7.159081 63.40634,17.694891 77.8627,30.895221 4.09191,3.736372 4.93411,4.19 4.93305,2.659977 -0.002,-2.59622 -11.40042,-19.122491 -15.66532,-22.712776 -9.03206,-7.603389 -39.09414,-14.477451 -63.25778,-14.464962 z m -50.30003,1.604029 c -2.10395,-0.04689 -5.14029,0.01512 -9.14938,0.141409 -43.95892,1.384778 -79.7968,17.411927 -110.696917,49.50808 -51.660971,53.66059 -54.087497,113.24936 -7.473303,183.52065 3.489817,5.26094 5.754071,9.35189 5.517629,9.97085 -0.768711,2.01228 45.408971,65.06106 46.701221,63.76359 0.20058,-0.20139 -3.50804,-10.13176 -8.24043,-22.06717 C 76.903878,245.05106 72.202468,200.84423 93.319282,147.44472 111.88671,100.49201 139.303,75.306965 191.67776,57.09166 c 9.41222,-3.273461 11.49531,-4.388836 5.18345,-4.529489 z m 31.63268,3.105802 c -3.67062,-0.15734 0.49566,2.192221 11.64858,8.392075 65.57335,36.451932 91.75171,67.220522 98.31763,115.556582 0.6414,4.72177 1.50609,4.1732 2.78554,-1.76822 4.09078,-18.99639 3.23759,-44.61635 -1.9938,-59.89391 C 328.67165,87.056445 301.131,69.874177 243.74871,58.368717 c -8.02873,-1.609806 -13.05245,-2.60634 -15.25482,-2.700744 z m -16.14987,1.235819 c -1.19357,7.73e-4 -2.72844,1.881201 -5.5988,4.808855 -37.92368,38.680893 -51.80513,108.533173 -60.26588,303.266733 -0.29104,6.6991 6.82896,7.26804 14.45699,1.15399 14.90283,-11.94482 41.31703,-57.1085 62.26015,-106.45128 24.12827,-56.84703 23.01845,-101.29879 -4.70064,-188.142731 -3.39098,-10.623913 -4.40737,-14.636738 -6.15182,-14.635606 z m -7.75416,0.03869 c -0.79851,-0.0386 -2.38378,0.364909 -4.81412,1.139879 -56.47419,18.008222 -85.31084,43.860056 -104.152942,93.370076 -19.704213,51.77528 -14.579087,94.6013 22.488582,187.89677 10.83868,27.27988 9.88409,25.65377 16.33987,27.8513 7.32233,2.49254 7.79248,2.37749 8.2655,-2.03951 0.21833,-2.03894 1.1874,-19.27672 2.15334,-38.30584 4.88846,-96.2545 8.88684,-136.15225 17.52473,-174.86708 9.03279,-40.4848 23.85018,-74.209196 39.90823,-90.828669 2.76258,-2.859146 3.61717,-4.152599 2.28633,-4.216952 z m 14.68071,2.168316 c -1.02967,0.126124 0.25558,4.090198 3.17913,13.171459 22.73392,70.61742 26.92661,116.49571 14.5811,159.51126 -11.36019,39.58246 -47.05511,108.41784 -68.5648,132.21904 -6.02804,6.67024 -5.90546,6.71592 3.12117,1.17549 58.11885,-35.67255 80.23382,-53.18896 98.99016,-78.41117 30.10544,-40.48368 35.43485,-93.32076 13.9988,-138.80849 -10.71536,-22.73818 -40.07435,-64.369049 -58.38584,-82.791368 -3.91783,-3.94154 -6.11887,-6.164318 -6.91972,-6.066221 z m 11.34255,4.168283 c -0.0588,-0.01062 -0.0955,-0.0095 -0.11055,0.0058 -0.20416,0.204983 2.45329,3.64991 5.90677,7.654908 25.56954,29.653025 50.71805,69.400825 57.95549,91.601125 14.2012,43.56107 5.64969,92.07918 -22.71492,128.87729 -7.34426,9.5279 -7.27853,9.52671 3.85608,-0.0843 C 324.995,248.61683 343.08172,208.5852 332.05368,166.16962 323.18842,132.07247 302.50148,106.26711 265.14501,82.699408 254.68675,76.101441 232.4361,63.609099 230.61312,63.279084 Z M 126.84467,368.40446 c -1.17971,0.0256 -0.70809,2.3905 1.12211,4.56682 3.94159,4.687 17.67456,7.64145 27.04078,5.81778 3.09703,-0.60301 6.46528,-2.61138 6.97928,-4.16071 0.19406,-0.58496 -0.96806,-0.8392 -3.83004,-0.83663 -11.05081,0.0106 -23.04452,-2.03968 -30.70587,-5.24843 -0.23682,-0.0992 -0.43772,-0.1425 -0.60626,-0.1388 z m 3.92785,15.33145 c 3.28408,-0.0249 7.40657,0.50174 12.65013,1.38332 16.26773,2.73495 18.59967,6.21121 15.95579,23.78806 -2.96048,19.6815 -5.95538,21.78672 -26.42709,18.5901 -16.48893,-2.57471 -19.13428,-6.29484 -16.59976,-23.34416 2.27518,-15.30486 4.56867,-20.34262 14.42093,-20.41732 z m 3.32942,7.30035 c -2.81171,0.0401 -5.32078,0.52277 -6.9849,1.58347 -7.80713,4.97624 14.50845,12.94458 23.77172,8.48826 0.96353,-0.46352 1.86113,-1.41204 1.99424,-2.10745 0.80744,-4.21856 -10.34595,-8.08453 -18.78106,-7.96428 z m -12.12232,6.52557 c -0.96797,-0.0957 -1.43309,2.24576 -2.39557,8.808 -1.89559,12.92422 -0.0657,15.29595 13.56307,17.58337 9.36163,1.57124 13.75961,1.68041 16.21773,0.40334 3.59035,-1.86533 4.44319,-3.55288 5.81139,-11.50347 1.9671,-11.43081 2.00045,-11.2459 -1.63615,-9.15912 -7.66011,4.39558 -24.42111,1.77793 -29.83437,-4.65902 -0.74244,-0.88284 -1.28609,-1.42961 -1.7261,-1.4731 z"
     id="path912"
     inkscape:connector-curvature="0" />
</svg>
