<svg width="319" height="417" viewBox="0 0 319 417" fill="none" xmlns="http://www.w3.org/2000/svg">
<!-- This work by <a rel="license" href="https://adrianocahete.dev/">Adriano Cahete</a> is licensed under a <a rel="license" href="https://creativecommons.org/licenses/by-nd/4.0/">Creative Commons Attribution-NoDerivatives 4.0 International License</a>. -->
<rect x="134" y="287.088" width="52" height="52" rx="10" fill="#07689F"/>
<circle cx="160.04" cy="139.088" r="139" fill="white"/>
<path d="M158.54 0.0878519C158.54 0.0878519 103.396 -3.91214 60.0398 42.0879C60.0398 42.0879 18.5398 81.0879 20.0397 141.588C21.5397 202.088 60.0398 235.588 60.0398 235.588C105.54 281.599 158.54 278.088 158.54 278.088C158.54 278.088 55.5396 231.588 55.5396 141.588C55.5396 51.5879 158.54 0.0878519 158.54 0.0878519Z" fill="#07689F"/>
<path d="M128.5 141.588C128.5 51.5878 159.5 6.10352e-05 159.5 6.10352e-05C159.5 6.10352e-05 80 43.5 83.5 141.588C87 239.676 160 278 160 278C160 278 128.5 231.588 128.5 141.588Z" fill="#07689F"/>
<path d="M191.5 141.588C191.5 51.5878 160.5 6.10352e-05 160.5 6.10352e-05C160.5 6.10352e-05 240 43.5 236.5 141.588C233 239.676 160 278 160 278C160 278 191.5 231.588 191.5 141.588Z" fill="#07689F"/>
<path d="M161.04 278.062C161.04 278.062 216.183 282.062 259.54 236.062C259.54 236.062 301.04 197.062 299.54 136.562C298.04 76.0616 259.54 42.5616 259.54 42.5616C214.04 -3.44968 161.04 0.0615418 161.04 0.0615418C161.04 0.0615418 264.04 46.5616 264.04 136.562C264.04 226.562 161.04 278.062 161.04 278.062Z" fill="#07689F"/>
<path d="M18.112 367.08C22.5067 367.08 25.8773 368.189 28.224 370.408C30.5707 372.584 31.744 375.827 31.744 380.136V401H27.392V395.752C26.368 397.501 24.8533 398.867 22.848 399.848C20.8853 400.829 18.5387 401.32 15.808 401.32C12.0533 401.32 9.06667 400.424 6.848 398.632C4.62933 396.84 3.52 394.472 3.52 391.528C3.52 388.669 4.544 386.365 6.592 384.616C8.68267 382.867 11.9893 381.992 16.512 381.992H27.2V379.944C27.2 377.043 26.3893 374.845 24.768 373.352C23.1467 371.816 20.7787 371.048 17.664 371.048C15.5307 371.048 13.4827 371.411 11.52 372.136C9.55733 372.819 7.872 373.779 6.464 375.016L4.416 371.624C6.12267 370.173 8.17067 369.064 10.56 368.296C12.9493 367.485 15.4667 367.08 18.112 367.08ZM16.512 397.736C19.072 397.736 21.2693 397.16 23.104 396.008C24.9387 394.813 26.304 393.107 27.2 390.888V385.384H16.64C10.88 385.384 8 387.389 8 391.4C8 393.363 8.74667 394.92 10.24 396.072C11.7333 397.181 13.824 397.736 16.512 397.736ZM44.086 367.336H48.63V401H44.086V367.336ZM46.39 359.976C45.4513 359.976 44.662 359.656 44.022 359.016C43.382 358.376 43.062 357.608 43.062 356.712C43.062 355.859 43.382 355.112 44.022 354.472C44.662 353.832 45.4513 353.512 46.39 353.512C47.3287 353.512 48.118 353.832 48.758 354.472C49.398 355.069 49.718 355.795 49.718 356.648C49.718 357.587 49.398 358.376 48.758 359.016C48.118 359.656 47.3287 359.976 46.39 359.976ZM65.6255 373.928C66.6922 371.667 68.2708 369.96 70.3615 368.808C72.4948 367.656 75.1188 367.08 78.2335 367.08V371.496L77.1455 371.432C73.6042 371.432 70.8308 372.52 68.8255 374.696C66.8202 376.872 65.8175 379.923 65.8175 383.848V401H61.2735V367.336H65.6255V373.928ZM103.805 367.08C106.962 367.08 109.821 367.805 112.381 369.256C114.941 370.664 116.946 372.669 118.397 375.272C119.848 377.875 120.573 380.84 120.573 384.168C120.573 387.496 119.848 390.461 118.397 393.064C116.946 395.667 114.941 397.693 112.381 399.144C109.821 400.595 106.962 401.32 103.805 401.32C100.989 401.32 98.4503 400.723 96.189 399.528C93.9703 398.333 92.1783 396.605 90.813 394.344V401H86.461V353.512H91.005V373.736C92.413 371.56 94.205 369.917 96.381 368.808C98.5997 367.656 101.074 367.08 103.805 367.08ZM103.485 397.288C105.832 397.288 107.965 396.755 109.885 395.688C111.805 394.579 113.298 393.021 114.365 391.016C115.474 389.011 116.029 386.728 116.029 384.168C116.029 381.608 115.474 379.325 114.365 377.32C113.298 375.315 111.805 373.779 109.885 372.712C107.965 371.603 105.832 371.048 103.485 371.048C101.096 371.048 98.941 371.603 97.021 372.712C95.1437 373.779 93.6503 375.315 92.541 377.32C91.4743 379.325 90.941 381.608 90.941 384.168C90.941 386.728 91.4743 389.011 92.541 391.016C93.6503 393.021 95.1437 394.579 97.021 395.688C98.941 396.755 101.096 397.288 103.485 397.288ZM141.425 367.08C145.819 367.08 149.19 368.189 151.537 370.408C153.883 372.584 155.057 375.827 155.057 380.136V401H150.705V395.752C149.681 397.501 148.166 398.867 146.161 399.848C144.198 400.829 141.851 401.32 139.121 401.32C135.366 401.32 132.379 400.424 130.161 398.632C127.942 396.84 126.833 394.472 126.833 391.528C126.833 388.669 127.857 386.365 129.905 384.616C131.995 382.867 135.302 381.992 139.825 381.992H150.513V379.944C150.513 377.043 149.702 374.845 148.081 373.352C146.459 371.816 144.091 371.048 140.977 371.048C138.843 371.048 136.795 371.411 134.833 372.136C132.87 372.819 131.185 373.779 129.777 375.016L127.729 371.624C129.435 370.173 131.483 369.064 133.873 368.296C136.262 367.485 138.779 367.08 141.425 367.08ZM139.825 397.736C142.385 397.736 144.582 397.16 146.417 396.008C148.251 394.813 149.617 393.107 150.513 390.888V385.384H139.953C134.193 385.384 131.312 387.389 131.312 391.4C131.312 393.363 132.059 394.92 133.553 396.072C135.046 397.181 137.137 397.736 139.825 397.736ZM167.399 353.512H171.943V401H167.399V353.512ZM184.586 353.512H189.13V401H184.586V353.512ZM215.534 401.32C212.291 401.32 209.368 400.595 206.766 399.144C204.163 397.651 202.115 395.603 200.622 393C199.128 390.397 198.382 387.453 198.382 384.168C198.382 380.883 199.128 377.939 200.622 375.336C202.115 372.733 204.163 370.707 206.766 369.256C209.368 367.805 212.291 367.08 215.534 367.08C218.776 367.08 221.699 367.805 224.302 369.256C226.904 370.707 228.931 372.733 230.382 375.336C231.875 377.939 232.622 380.883 232.622 384.168C232.622 387.453 231.875 390.397 230.382 393C228.931 395.603 226.904 397.651 224.302 399.144C221.699 400.595 218.776 401.32 215.534 401.32ZM215.534 397.288C217.923 397.288 220.056 396.755 221.934 395.688C223.854 394.579 225.347 393.021 226.414 391.016C227.48 389.011 228.014 386.728 228.014 384.168C228.014 381.608 227.48 379.325 226.414 377.32C225.347 375.315 223.854 373.779 221.934 372.712C220.056 371.603 217.923 371.048 215.534 371.048C213.144 371.048 210.99 371.603 209.07 372.712C207.192 373.779 205.699 375.315 204.59 377.32C203.523 379.325 202.99 381.608 202.99 384.168C202.99 386.728 203.523 389.011 204.59 391.016C205.699 393.021 207.192 394.579 209.07 395.688C210.99 396.755 213.144 397.288 215.534 397.288ZM255.659 401.32C252.416 401.32 249.493 400.595 246.891 399.144C244.288 397.651 242.24 395.603 240.747 393C239.253 390.397 238.507 387.453 238.507 384.168C238.507 380.883 239.253 377.939 240.747 375.336C242.24 372.733 244.288 370.707 246.891 369.256C249.493 367.805 252.416 367.08 255.659 367.08C258.901 367.08 261.824 367.805 264.427 369.256C267.029 370.707 269.056 372.733 270.507 375.336C272 377.939 272.747 380.883 272.747 384.168C272.747 387.453 272 390.397 270.507 393C269.056 395.603 267.029 397.651 264.427 399.144C261.824 400.595 258.901 401.32 255.659 401.32ZM255.659 397.288C258.048 397.288 260.181 396.755 262.059 395.688C263.979 394.579 265.472 393.021 266.539 391.016C267.605 389.011 268.139 386.728 268.139 384.168C268.139 381.608 267.605 379.325 266.539 377.32C265.472 375.315 263.979 373.779 262.059 372.712C260.181 371.603 258.048 371.048 255.659 371.048C253.269 371.048 251.115 371.603 249.195 372.712C247.317 373.779 245.824 375.315 244.715 377.32C243.648 379.325 243.115 381.608 243.115 384.168C243.115 386.728 243.648 389.011 244.715 391.016C245.824 393.021 247.317 394.579 249.195 395.688C251.115 396.755 253.269 397.288 255.659 397.288ZM299.176 367.08C303.4 367.08 306.749 368.317 309.224 370.792C311.741 373.224 313 376.787 313 381.48V401H308.456V381.928C308.456 378.429 307.581 375.763 305.832 373.928C304.082 372.093 301.586 371.176 298.344 371.176C294.717 371.176 291.837 372.264 289.704 374.44C287.613 376.573 286.568 379.539 286.568 383.336V401H282.024V367.336H286.376V373.544C287.613 371.496 289.32 369.917 291.496 368.808C293.714 367.656 296.274 367.08 299.176 367.08Z" fill="#07689F"/>
</svg>
