<svg fill="none" xmlns="http://www.w3.org/2000/svg" viewBox="0 0 319 417">
  <!-- This work by <a rel="license" href="https://adrianocahete.dev/">Adriano Cahete</a> is licensed under a <a rel="license" href="https://creativecommons.org/licenses/by-nd/4.0/">Creative Commons Attribution-NoDerivatives 4.0 International License</a>. -->
  <rect x="134" y="287.088" width="52" height="52" rx="10" fill="#07689F"/>
  <circle cx="160.04" cy="139.088" r="139" fill="white"/>
  <path d="M158.54.0878519S103.396-3.91214 60.0398 42.0879c0 0-41.5 39-40.0001 99.5001 1.5 60.5 40.0001 94 40.0001 94 45.5002 46.011 98.5002 42.5 98.5002 42.5s-103.0004-46.5-103.0004-136.5C55.5396 51.5879 158.54.0878519 158.54.0878519z" fill="#07689F"/>
  <path d="M128.5 141.588c0-90.0002 31-141.58793896 31-141.58793896S80 43.5 83.5 141.588 160 278 160 278s-31.5-46.412-31.5-136.412zM191.5 141.588c0-90.0002-31-141.58793896-31-141.58793896S240 43.5 236.5 141.588 160 278 160 278s31.5-46.412 31.5-136.412z" fill="#07689F"/>
  <path d="M161.04 278.062s55.143 4 98.5-42c0 0 41.5-39 40-99.5-1.5-60.5004-40-94.0004-40-94.0004C214.04-3.44968 161.04.0615418 161.04.0615418S264.04 46.5616 264.04 136.562c0 90-103 141.5-103 141.5zM18.112 367.08c4.3947 0 7.7653 1.109 10.112 3.328 2.3467 2.176 3.52 5.419 3.52 9.728V401h-4.352v-5.248c-1.024 1.749-2.5387 3.115-4.544 4.096-1.9627.981-4.3093 1.472-7.04 1.472-3.7547 0-6.74133-.896-8.96-2.688-2.21867-1.792-3.328-4.16-3.328-7.104 0-2.859 1.024-5.163 3.072-6.912 2.09067-1.749 5.3973-2.624 9.92-2.624H27.2v-2.048c0-2.901-.8107-5.099-2.432-6.592-1.6213-1.536-3.9893-2.304-7.104-2.304-2.1333 0-4.1813.363-6.144 1.088-1.96267.683-3.648 1.643-5.056 2.88l-2.048-3.392c1.70667-1.451 3.75467-2.56 6.144-3.328 2.3893-.811 4.9067-1.216 7.552-1.216zm-1.6 30.656c2.56 0 4.7573-.576 6.592-1.728 1.8347-1.195 3.2-2.901 4.096-5.12v-5.504H16.64c-5.76 0-8.64 2.005-8.64 6.016 0 1.963.74667 3.52 2.24 4.672 1.4933 1.109 3.584 1.664 6.272 1.664zm27.574-30.4h4.544V401h-4.544v-33.664zm2.304-7.36c-.9387 0-1.728-.32-2.368-.96-.64-.64-.96-1.408-.96-2.304 0-.853.32-1.6.96-2.24.64-.64 1.4293-.96 2.368-.96.9387 0 1.728.32 2.368.96.64.597.96 1.323.96 2.176 0 .939-.32 1.728-.96 2.368-.64.64-1.4293.96-2.368.96zm19.2355 13.952c1.0667-2.261 2.6453-3.968 4.736-5.12 2.1333-1.152 4.7573-1.728 7.872-1.728v4.416l-1.088-.064c-3.5413 0-6.3147 1.088-8.32 3.264-2.0053 2.176-3.008 5.227-3.008 9.152V401h-4.544v-33.664h4.352v6.592zm38.1795-6.848c3.157 0 6.016.725 8.576 2.176 2.56 1.408 4.565 3.413 6.016 6.016 1.451 2.603 2.176 5.568 2.176 8.896 0 3.328-.725 6.293-2.176 8.896-1.451 2.603-3.456 4.629-6.016 6.08-2.56 1.451-5.419 2.176-8.576 2.176-2.816 0-5.3547-.597-7.616-1.792-2.2187-1.195-4.0107-2.923-5.376-5.184V401h-4.352v-47.488h4.544v20.224c1.408-2.176 3.2-3.819 5.376-4.928 2.2187-1.152 4.693-1.728 7.424-1.728zm-.32 30.208c2.347 0 4.48-.533 6.4-1.6 1.92-1.109 3.413-2.667 4.48-4.672 1.109-2.005 1.664-4.288 1.664-6.848 0-2.56-.555-4.843-1.664-6.848-1.067-2.005-2.56-3.541-4.48-4.608-1.92-1.109-4.053-1.664-6.4-1.664-2.389 0-4.544.555-6.464 1.664-1.8773 1.067-3.3707 2.603-4.48 4.608-1.0667 2.005-1.6 4.288-1.6 6.848 0 2.56.5333 4.843 1.6 6.848 1.1093 2.005 2.6027 3.563 4.48 4.672 1.92 1.067 4.075 1.6 6.464 1.6zm37.94-30.208c4.394 0 7.765 1.109 10.112 3.328 2.346 2.176 3.52 5.419 3.52 9.728V401h-4.352v-5.248c-1.024 1.749-2.539 3.115-4.544 4.096-1.963.981-4.31 1.472-7.04 1.472-3.755 0-6.742-.896-8.96-2.688-2.219-1.792-3.328-4.16-3.328-7.104 0-2.859 1.024-5.163 3.072-6.912 2.09-1.749 5.397-2.624 9.92-2.624h10.688v-2.048c0-2.901-.811-5.099-2.432-6.592-1.622-1.536-3.99-2.304-7.104-2.304-2.134 0-4.182.363-6.144 1.088-1.963.683-3.648 1.643-5.056 2.88l-2.048-3.392c1.706-1.451 3.754-2.56 6.144-3.328 2.389-.811 4.906-1.216 7.552-1.216zm-1.6 30.656c2.56 0 4.757-.576 6.592-1.728 1.834-1.195 3.2-2.901 4.096-5.12v-5.504h-10.56c-5.76 0-8.641 2.005-8.641 6.016 0 1.963.747 3.52 2.241 4.672 1.493 1.109 3.584 1.664 6.272 1.664zm27.574-44.224h4.544V401h-4.544v-47.488zm17.187 0h4.544V401h-4.544v-47.488zm30.948 47.808c-3.243 0-6.166-.725-8.768-2.176-2.603-1.493-4.651-3.541-6.144-6.144-1.494-2.603-2.24-5.547-2.24-8.832 0-3.285.746-6.229 2.24-8.832 1.493-2.603 3.541-4.629 6.144-6.08 2.602-1.451 5.525-2.176 8.768-2.176 3.242 0 6.165.725 8.768 2.176 2.602 1.451 4.629 3.477 6.08 6.08 1.493 2.603 2.24 5.547 2.24 8.832 0 3.285-.747 6.229-2.24 8.832-1.451 2.603-3.478 4.651-6.08 6.144-2.603 1.451-5.526 2.176-8.768 2.176zm0-4.032c2.389 0 4.522-.533 6.4-1.6 1.92-1.109 3.413-2.667 4.48-4.672 1.066-2.005 1.6-4.288 1.6-6.848 0-2.56-.534-4.843-1.6-6.848-1.067-2.005-2.56-3.541-4.48-4.608-1.878-1.109-4.011-1.664-6.4-1.664-2.39 0-4.544.555-6.464 1.664-1.878 1.067-3.371 2.603-4.48 4.608-1.067 2.005-1.6 4.288-1.6 6.848 0 2.56.533 4.843 1.6 6.848 1.109 2.005 2.602 3.563 4.48 4.672 1.92 1.067 4.074 1.6 6.464 1.6zm40.125 4.032c-3.243 0-6.166-.725-8.768-2.176-2.603-1.493-4.651-3.541-6.144-6.144-1.494-2.603-2.24-5.547-2.24-8.832 0-3.285.746-6.229 2.24-8.832 1.493-2.603 3.541-4.629 6.144-6.08 2.602-1.451 5.525-2.176 8.768-2.176 3.242 0 6.165.725 8.768 2.176 2.602 1.451 4.629 3.477 6.08 6.08 1.493 2.603 2.24 5.547 2.24 8.832 0 3.285-.747 6.229-2.24 8.832-1.451 2.603-3.478 4.651-6.08 6.144-2.603 1.451-5.526 2.176-8.768 2.176zm0-4.032c2.389 0 4.522-.533 6.4-1.6 1.92-1.109 3.413-2.667 4.48-4.672 1.066-2.005 1.6-4.288 1.6-6.848 0-2.56-.534-4.843-1.6-6.848-1.067-2.005-2.56-3.541-4.48-4.608-1.878-1.109-4.011-1.664-6.4-1.664-2.39 0-4.544.555-6.464 1.664-1.878 1.067-3.371 2.603-4.48 4.608-1.067 2.005-1.6 4.288-1.6 6.848 0 2.56.533 4.843 1.6 6.848 1.109 2.005 2.602 3.563 4.48 4.672 1.92 1.067 4.074 1.6 6.464 1.6zm43.517-30.208c4.224 0 7.573 1.237 10.048 3.712 2.517 2.432 3.776 5.995 3.776 10.688V401h-4.544v-19.072c0-3.499-.875-6.165-2.624-8-1.75-1.835-4.246-2.752-7.488-2.752-3.627 0-6.507 1.088-8.64 3.264-2.091 2.133-3.136 5.099-3.136 8.896V401h-4.544v-33.664h4.352v6.208c1.237-2.048 2.944-3.627 5.12-4.736 2.218-1.152 4.778-1.728 7.68-1.728z" fill="#07689F"/>
</svg>
