<svg width="280" height="340" viewBox="0 0 280 340" fill="none" xmlns="http://www.w3.org/2000/svg">
<!-- This work by <a rel="license" href="https://adrianocahete.dev/">Adriano Cahete</a> is licensed under a <a rel="license" href="https://creativecommons.org/licenses/by-nd/4.0/">Creative Commons Attribution-NoDerivatives 4.0 International License</a>. -->
<rect x="114" y="287.088" width="52" height="52" rx="10" fill="#07689F"/>
<circle cx="140.04" cy="139.088" r="139" fill="white"/>
<path d="M138.54 0.0878519C138.54 0.0878519 83.3962 -3.91214 40.0398 42.0879C40.0398 42.0879 -1.46025 81.0879 0.0397018 141.588C1.53965 202.088 40.0398 235.588 40.0398 235.588C85.5397 281.599 138.54 278.088 138.54 278.088C138.54 278.088 35.5396 231.588 35.5396 141.588C35.5396 51.5879 138.54 0.0878519 138.54 0.0878519Z" fill="#07689F"/>
<path d="M108.5 141.588C108.5 51.5878 139.5 6.10352e-05 139.5 6.10352e-05C139.5 6.10352e-05 60 43.5 63.5 141.588C67 239.676 140 278 140 278C140 278 108.5 231.588 108.5 141.588Z" fill="#07689F"/>
<path d="M171.5 141.588C171.5 51.5878 140.5 6.10352e-05 140.5 6.10352e-05C140.5 6.10352e-05 220 43.5 216.5 141.588C213 239.676 140 278 140 278C140 278 171.5 231.588 171.5 141.588Z" fill="#07689F"/>
<path d="M141.04 278.062C141.04 278.062 196.183 282.062 239.54 236.062C239.54 236.062 281.04 197.062 279.54 136.562C278.04 76.0616 239.54 42.5616 239.54 42.5616C194.04 -3.44968 141.04 0.0615418 141.04 0.0615418C141.04 0.0615418 244.04 46.5616 244.04 136.562C244.04 226.562 141.04 278.062 141.04 278.062Z" fill="#07689F"/>
</svg>
